<svg xmlns="http://www.w3.org/2000/svg" width="512" height="512" viewBox="0 0 512 512" version="1.1">
	<path d="M 189.096 227.265 C 184.038 229.864, 182.527 233.415, 182.153 243.571 L 181.807 253 176.837 253 C 172.005 253, 171.876 253.076, 172.184 255.750 C 172.473 258.268, 172.900 258.526, 177.250 258.805 L 182 259.110 182 281.555 L 182 304 185 304 L 188 304 188 281.038 L 188 258.075 194.500 258.682 L 201 259.289 201 256.145 L 201 253 194.372 253 L 187.743 253 188.201 245.084 C 188.791 234.894, 190.507 232, 195.958 232 C 198.109 232, 201.016 232.436, 202.417 232.968 C 204.524 233.769, 205.148 233.592, 206.031 231.942 C 206.976 230.177, 206.602 229.721, 202.799 227.995 C 197.871 225.758, 192.577 225.476, 189.096 227.265 M 111.243 255.750 C 111.756 288.806, 112.222 291.185, 119.497 297.890 C 131.029 308.520, 152.232 306.569, 160.116 294.152 C 164.361 287.465, 165 282.139, 165 253.451 L 165 227 161.580 227 L 158.161 227 157.830 255.750 C 157.503 284.259, 157.479 284.538, 155 289 C 151.746 294.857, 145.810 298, 138 298 C 129.778 298, 124.188 294.877, 121 288.500 C 118.540 283.579, 118.495 283.053, 118.158 255.250 L 117.815 227 114.306 227 L 110.797 227 111.243 255.750 M 304 265.500 L 304 304 307 304 L 310 304 310 285.723 C 310 265.029, 310.064 264.818, 317.826 259.896 C 322.611 256.861, 328.429 256.089, 332.022 258.012 C 335.135 259.678, 335.989 265.530, 335.994 285.250 L 336 304 339 304 L 342 304 341.998 282.750 C 341.997 264.522, 341.748 261.002, 340.248 258 C 336.404 250.304, 325.531 248.885, 315.967 254.829 C 313.162 256.573, 310.672 258, 310.434 258 C 310.195 258, 310 251.025, 310 242.500 L 310 227 307 227 L 304 227 304 265.500 M 373 260.480 C 373 297.549, 373.433 300.621, 379.074 303.538 C 382.567 305.344, 382.654 305.344, 383.361 303.502 C 383.677 302.679, 382.937 300.316, 381.718 298.252 C 379.565 294.609, 379.491 293.516, 379.179 260.750 L 378.858 227 375.929 227 L 373 227 373 260.480 M 286 242 C 286 249.150, 285.830 255, 285.622 255 C 285.414 255, 283.629 254.325, 281.654 253.500 C 270.990 249.044, 258.200 255.045, 254.344 266.313 C 251.911 273.424, 251.898 286.925, 254.317 293.203 C 258.937 305.191, 271.049 308.426, 281.486 300.459 C 283.978 298.557, 286.238 297, 286.509 297 C 286.779 297, 287 298.575, 287 300.500 C 287 303.722, 287.238 304, 290 304 L 293 304 293 266.500 L 293 229 289.500 229 L 286 229 286 242 M 355.163 237.878 C 353.416 238.986, 354.040 243.008, 356.166 244.340 C 358.350 245.708, 361 243.594, 361 240.485 C 361 237.505, 357.920 236.130, 355.163 237.878 M 394.200 238.200 C 392.400 240, 392.753 242.798, 394.928 243.961 C 398.664 245.961, 401.961 242.664, 399.961 238.928 C 398.798 236.753, 396 236.400, 394.200 238.200 M 215.144 253.573 C 208.429 255.379, 208 255.655, 208 258.176 C 208 259.916, 208.424 260.130, 210.750 259.563 C 212.262 259.195, 217.192 258.637, 221.704 258.324 C 229.754 257.765, 229.962 257.808, 232.807 260.653 C 235.593 263.440, 237.949 271.655, 236.591 273.852 C 236.300 274.324, 232.560 274.969, 228.281 275.285 C 209.808 276.649, 201.026 284.669, 205.101 296.453 C 206.206 299.649, 207.438 300.973, 210.962 302.750 C 218.311 306.456, 225.918 305.351, 233.648 299.455 L 236.904 296.971 237.563 300.486 C 238.099 303.340, 238.671 304, 240.611 304 L 243 304 243 284.316 C 243 266.234, 242.825 264.271, 240.856 260.202 C 237.179 252.608, 227.759 250.179, 215.144 253.573 M 354 278.500 L 354 304 357.500 304 L 361 304 361 278.500 L 361 253 357.500 253 L 354 253 354 278.500 M 393 278.500 L 393 304 396.500 304 L 400 304 400 278.500 L 400 253 396.500 253 L 393 253 393 278.500 M 266.365 259.919 C 261.915 262.632, 259.620 269.239, 259.597 279.398 C 259.567 292.646, 263.166 299, 270.701 299 C 274.978 299, 277.480 297.739, 282.250 293.179 L 286 289.594 286 275.323 L 286 261.051 283.050 259.526 C 278.861 257.360, 270.228 257.563, 266.365 259.919 M 223.903 281.013 C 214.965 282.525, 211 285.869, 211 291.895 C 211 296.279, 214.346 299, 219.738 299 C 224.804 299, 229.178 297.031, 233.750 292.692 C 236.538 290.046, 237 288.924, 237 284.804 L 237 280 232.750 280.118 C 230.412 280.182, 226.431 280.585, 223.903 281.013" stroke="none" fill="black" fill-rule="evenodd"/>
</svg>